<?xml version="1.0" encoding="utf-8"?>
<!-- Generator: Adobe Illustrator 19.0.0, SVG Export Plug-In . SVG Version: 6.00 Build 0)  -->
<svg version="1.1" id="Calque_1" xmlns="http://www.w3.org/2000/svg" xmlns:xlink="http://www.w3.org/1999/xlink" x="0px" y="0px"
	 viewBox="0 0 93.9 79.1" style="enable-background:new 0 0 93.9 79.1;" xml:space="preserve">
<style type="text/css">
	.st0{fill:#0087CE;}
	.st1{fill:#FFFFFF;}
</style>
<rect id="XMLID_59_" y="0" class="st0" width="93.9" height="79.1"/>
<g id="XMLID_2_">
	<g id="XMLID_55_">
		<path id="XMLID_58_" class="st1" d="M27,21.4c-2.3,0-4.5-0.1-6.5-0.3c-1.9-0.2-3.5-0.6-4.5-1l-2.9,7.3c2,0.8,4.2,1.2,6.5,1.5
			c2.3,0.3,4.8,0.4,7.4,0.4c3.1,0,6.3-0.2,9.2-0.3l-2.1-7.7C31.7,21.3,29.3,21.4,27,21.4z"/>
		<path id="XMLID_57_" class="st1" d="M27.6,35.3c-2.3,0-4.5-0.1-6.5-0.3c-1.9-0.2-3.5-0.6-4.5-1l-2.9,7.3c2,0.8,4.2,1.2,6.5,1.5
			c2.3,0.3,4.8,0.4,7.4,0.4c4.2,0,8.6-0.3,12.3-0.6c0,0,0.1,0,0.1,0l-2.1-7.7C34.6,35.1,31,35.3,27.6,35.3z"/>
		<path id="XMLID_56_" class="st1" d="M28.2,49.3c-2.3,0-4.5-0.1-6.5-0.3c-1.9-0.2-3.5-0.6-4.5-1l-2.9,7.3c2,0.8,4.2,1.2,6.5,1.5
			c2.3,0.3,4.8,0.4,7.4,0.4c4.2,0,8.6-0.3,12.3-0.6c1.1-0.1,2.2-0.2,3.2-0.3l-2.1-7.7C37.6,48.9,32.8,49.3,28.2,49.3z"/>
	</g>
	<path id="XMLID_54_" class="st1" d="M77.5,20.5c-0.6-3.7-1.1-15.9-2.6-14.4c-1.4,1.5-2.7,2.6-8.4,3.9c-5.4,1.3-24-1.1-27.6,5.6
		l-0.5-2c0.3-0.5,0.3-1,0.2-1.6c-0.3-1.1-1.4-1.8-2.5-1.5c-1.1,0.3-1.7,1.4-1.4,2.5c0.2,0.6,0.5,1,1,1.3L48.1,60l1.5,0.5l1.2-1.2
		c0,0-4.7-17.4-4.7-17.5c0,0,1.4-2.3,4.6-3.4c4.3-1.4,15.5,0.1,24.7-2.1c2.6-0.6,7.8-3.2,6.5-4.9C80.5,29.8,78.1,24.2,77.5,20.5z"/>
	<g id="XMLID_45_">
		<path id="XMLID_52_" class="st1" d="M55.5,54.9c-1.4,0-1.3,0-1.3-0.3c0-4.9,0-8.4,0-13.1c0-0.4,0.1-0.4,1.3-0.4
			c1.3,0,1.5,0.1,1.5,0.4c0.2,0.8,0.5,1.6,0.7,2.4c0.4,1.3,0.7,2.4,0.9,2.4c0.2,0,0.5-1.1,0.8-2.4c0.2-0.8,0.5-1.7,0.7-2.4
			c0.1-0.3,0.3-0.4,1.4-0.4c1.3,0,1.4,0,1.4,0.4c0,1.6,0,8,0,13.1c0,0.3,0.1,0.3-1.4,0.3c-1.4,0-1.4,0-1.4-0.3c0-3.1,0-3.8,0-6.9
			c0-0.3-0.3-0.4-0.4-0.2c-0.2,1.1-0.5,2.5-0.6,2.8c-0.1,0.2-0.3,0.3-0.4,0.3c-0.1,0-0.4,0-0.5,0c-0.1,0-0.3-0.1-0.4-0.3
			c-0.1-0.3-0.4-1.6-0.6-2.7c0-0.2-0.5-0.2-0.5,0.1c0,3.1,0,3.8,0,6.9C57,54.8,57,54.9,55.5,54.9z"/>
		<path id="XMLID_49_" class="st1" d="M67.4,54.9c-0.3,0-1.4,0-1.4-0.2c0.8-5.2,1.3-8.3,2.1-13.3c0-0.3,1.1-0.3,1.5-0.3
			c0.5,0,1.4,0,1.4,0.4c0.8,5,1.4,8.1,2.3,13.3c0,0.2-1,0.2-1.6,0.2c-0.6,0-1.2,0-1.3-0.2c-0.2-1.1-0.2-1.6-0.4-2.7
			c0-0.2-0.2-0.2-0.5-0.2c-0.4,0-0.6,0-0.6,0.2c-0.1,1.1-0.2,1.6-0.3,2.7C68.7,54.9,68,54.9,67.4,54.9z M69.6,49.9
			c0.3,0,0.4,0.1,0.4-0.1c-0.1-1.2-0.1-1.8-0.2-3.3c0-0.1-0.1-0.8-0.2-0.8c-0.1,0-0.2,0.9-0.2,0.9c-0.1,1.4-0.2,2-0.2,3.2
			C69.2,49.9,69.2,49.9,69.6,49.9z"/>
		<path id="XMLID_46_" class="st1" d="M79.7,50.1c-0.3,0-0.5,0.1-0.5,0.8c0,0.6,0,3,0,3.6c0,0.4-0.3,0.3-1.5,0.3s-1.4,0-1.4-0.6
			c0-2.9,0-9.7,0-12.6c0-0.6,0-0.6,0.6-0.6c0.5,0,2.2,0,2.9,0c2.1,0,3.4,1.2,3.4,3.2c0,2.9,0-0.3,0,2.6
			C83.2,48.9,81.8,50.1,79.7,50.1z M79.7,43.9c-0.5,0-0.5,0-0.5,0.2c0,2.2,0,0.8,0,3.1c0,0.3,0,0.2,0.5,0.2c0.6,0,0.5-0.6,0.5-1.2
			c0-0.5,0-0.7,0-1.2C80.2,44.6,80.3,43.9,79.7,43.9z"/>
	</g>
	<g id="XMLID_36_">
		<path id="XMLID_43_" class="st0" d="M52,28.4c0,2-1.4,3.2-3.5,3.2c-2,0-3.5-1.3-3.5-3.2c0-2.9,0-7.2,0-10.2c0-0.4,0-0.4,1.6-0.4
			c1.2,0,1.4,0,1.4,0.4c0,2.2,0,7.1,0,9.4c0,0.6-0.1,1.2,0.5,1.2c0.6,0,0.5-0.6,0.5-1.2c0-2.2,0-7.1,0-9.4c0-0.4,0.1-0.4,1.4-0.4
			c1.6,0,1.6,0.1,1.6,0.4C52,21.1,52,25.5,52,28.4z"/>
		<path id="XMLID_40_" class="st0" d="M60.7,31.6c-1.4,0-1.5,0-1.5-0.4c0-1.4,0-3.8,0-4.1c0-0.6,0.1-1.2-0.5-1.2
			c-0.5,0-0.5,0-0.5,0.2c0,2.2,0,2.7,0,5c0,0.4-0.2,0.4-1.6,0.4c-1.2,0-1.4,0-1.4-0.6c0-2.9,0-9.7,0-12.6c0-0.6,0-0.6,0.6-0.6
			c0.5,0,2.1,0,2.8,0c2.1,0,3.5,1.2,3.5,3.2c0,0.9,0,0.8,0,1.6c0,1.8-1.5,1.9-1.5,2c0,0.1,1.5,0,1.5,1.7c0,2,0,3.2,0,5
			C62.2,31.7,62.1,31.6,60.7,31.6z M58.7,20.7c-0.4,0-0.4,0-0.4,0.2c0,2.2,0,1.3,0,2.2c0,0.3,0.1,0.2,0.4,0.2c0.4,0,0.5-0.4,0.5-0.7
			c0-0.3,0-0.6,0-0.8C59.2,21.3,59.3,20.7,58.7,20.7z"/>
		<path id="XMLID_37_" class="st0" d="M66.4,31.6c-0.3,0-1.4,0-1.4-0.2c0.8-5.2,1.3-8.3,2.1-13.3c0-0.3,1.1-0.3,1.5-0.3
			c0.5,0,1.4,0,1.4,0.4c0.8,5,1.4,8.1,2.3,13.3c0,0.2-1,0.2-1.6,0.2c-0.6,0-1.2,0-1.3-0.2c-0.2-1.1-0.2-1.6-0.4-2.7
			c0-0.2-0.2-0.2-0.5-0.2c-0.4,0-0.6,0-0.6,0.2c-0.1,1.1-0.2,1.6-0.3,2.7C67.7,31.7,67,31.6,66.4,31.6z M68.6,26.7
			c0.3,0,0.4,0.1,0.4-0.1c-0.1-1.2-0.1-1.8-0.2-3.3c0-0.1-0.1-0.8-0.2-0.8c-0.1,0-0.2,0.9-0.2,0.9c-0.1,1.4-0.2,2-0.2,3.2
			C68.2,26.7,68.2,26.7,68.6,26.7z"/>
	</g>
	<g id="XMLID_3_">
		<path id="XMLID_34_" class="st1" d="M15.9,71.9c-0.2,0-0.6,0-0.6-0.2c-0.3-2.3-0.8-5-1.1-7.4c0-0.2-0.1-0.3,0.4-0.3
			c0.6,0,0.5,0,0.6,0.3c0.3,2.1,0.4,3.1,0.6,5c0,0,0,0.2,0.1,0.2c0.1,0,0.1-0.1,0.1-0.2c0.3-2.1,0.4-3.3,0.7-5c0-0.1,0-0.2,0.4-0.2
			c0.4,0,0.5,0,0.5,0.2c0.2,1.7,0.4,3.2,0.6,5c0,0,0,0.2,0.1,0.2c0.1,0,0.1-0.1,0.1-0.2c0.3-2,0.5-3.3,0.7-5.1c0-0.1,0-0.2,0.4-0.2
			c0.5,0,0.6,0,0.5,0.2c-0.5,3-0.8,5.1-1.2,7.5c0,0.2-0.3,0.2-0.6,0.2c-0.2,0-0.5,0-0.6-0.2c-0.2-1.2-0.3-2.3-0.5-3.6
			c0-0.1,0-0.2-0.1-0.2C17,67.9,17,68,17,68.1c-0.2,1.4-0.3,2.4-0.5,3.7C16.5,72,16.3,71.9,15.9,71.9z"/>
		<path id="XMLID_32_" class="st1" d="M22.7,71.9c-0.2,0-0.6,0-0.6-0.2c-0.3-2.3-0.8-5-1.1-7.4c0-0.2-0.1-0.3,0.4-0.3
			c0.6,0,0.5,0,0.6,0.3c0.3,2.1,0.4,3.1,0.6,5c0,0,0,0.2,0.1,0.2c0.1,0,0.1-0.1,0.1-0.2c0.3-2.1,0.4-3.3,0.7-5c0-0.1,0-0.2,0.4-0.2
			c0.4,0,0.5,0,0.5,0.2c0.2,1.7,0.4,3.2,0.6,5c0,0,0,0.2,0.1,0.2c0.1,0,0.1-0.1,0.1-0.2c0.3-2,0.5-3.3,0.7-5.1c0-0.1,0-0.2,0.4-0.2
			c0.5,0,0.6,0,0.5,0.2c-0.5,3-0.8,5.1-1.2,7.5c0,0.2-0.3,0.2-0.6,0.2c-0.2,0-0.5,0-0.6-0.2c-0.2-1.2-0.3-2.3-0.5-3.6
			c0-0.1,0-0.2-0.1-0.2c-0.1,0-0.1,0.1-0.1,0.2c-0.2,1.4-0.3,2.4-0.5,3.7C23.3,72,23.1,71.9,22.7,71.9z"/>
		<path id="XMLID_30_" class="st1" d="M29.5,71.9c-0.2,0-0.6,0-0.6-0.2c-0.3-2.3-0.8-5-1.1-7.4c0-0.2-0.1-0.3,0.4-0.3
			c0.6,0,0.5,0,0.6,0.3c0.3,2.1,0.4,3.1,0.6,5c0,0,0,0.2,0.1,0.2c0.1,0,0.1-0.1,0.1-0.2c0.3-2.1,0.4-3.3,0.7-5c0-0.1,0-0.2,0.4-0.2
			c0.4,0,0.5,0,0.5,0.2c0.2,1.7,0.4,3.2,0.6,5c0,0,0,0.2,0.1,0.2c0.1,0,0.1-0.1,0.1-0.2c0.3-2,0.5-3.3,0.7-5.1c0-0.1,0-0.2,0.4-0.2
			c0.5,0,0.6,0,0.5,0.2c-0.5,3-0.8,5.1-1.2,7.5c0,0.2-0.3,0.2-0.6,0.2c-0.2,0-0.5,0-0.6-0.2c-0.2-1.2-0.3-2.3-0.5-3.6
			c0-0.1,0-0.2-0.1-0.2c-0.1,0-0.1,0.1-0.1,0.2c-0.2,1.4-0.3,2.4-0.5,3.7C30,72,29.8,71.9,29.5,71.9z"/>
		<path id="XMLID_28_" class="st1" d="M35.5,71.2c0,0.4,0.1,0.7-0.7,0.8c-0.4,0.1-0.7-0.4-0.7-0.8c0-0.4,0.1-0.7,0.7-0.7
			C35.2,70.5,35.5,70.8,35.5,71.2z"/>
		<path id="XMLID_26_" class="st1" d="M37.6,64.2c0,2.5,0,3.6,0,5.7c0,0.4,0.1,1.1,0.6,1.1c0.7,0,1.1-0.4,1.1-1c0-1.7,0-4.1,0-5.7
			c0-0.1,0.1-0.2,0.5-0.2c0.4,0,0.5,0,0.5,0.2c0,2.4,0,5.8,0,7.6c0,0.1-0.1,0.1-0.5,0.1c-0.4,0-0.5,0-0.5-0.1c0-0.1,0-0.3,0-0.4
			c0-0.2,0-0.3-0.1-0.1c-0.2,0.4-0.6,0.7-1.1,0.7c-1.1,0-1.6-0.6-1.6-2.1c0-2,0-4.1,0-5.7c0-0.1,0.1-0.2,0.5-0.2
			C37.5,64,37.6,64,37.6,64.2z"/>
		<path id="XMLID_24_" class="st1" d="M43.1,66.1c0,1.7,0,3.3,0,5.7c0,0.2-0.1,0.2-0.6,0.2c-0.4,0-0.5,0-0.5-0.2c0-2.4,0-5.8,0-7.6
			c0-0.1,0.1-0.1,0.5-0.1c0.4,0,0.5,0,0.5,0.1s0,0.3,0,0.4c0,0.2,0,0.3,0.1,0.1c0.2-0.5,0.9-0.7,1.2-0.7c0.1,0,0.1,0.2,0.1,0.6
			c0,0.3,0,0.5-0.1,0.5C43.9,65.1,43.1,65.5,43.1,66.1z"/>
		<path id="XMLID_21_" class="st1" d="M49.2,64.2c0,0.5,0,4,0,7.6c0,0.2,0,0.2-0.5,0.2c-0.4,0-0.5,0-0.5-0.1c0-0.1,0-0.3-0.1-0.3
			c-0.1,0-0.1,0.4-0.8,0.4c-1.1,0-1.9-0.7-1.9-2.1c0-1.4,0-2.5,0-3.9c0-1.2,0.8-2,1.9-2c0.2,0,0.4,0,0.7,0.2
			c0.1,0.1,0.2,0.1,0.2-0.2c0-0.1,0.1-0.1,0.5-0.1C49.2,64,49.2,64,49.2,64.2z M46.5,66c0,1.3,0,2.6,0,3.8c0,0.7,0.3,1,0.8,1
			c0.5,0,0.8-0.3,0.8-1c0-1.3,0-2.5,0-3.8c0-0.5-0.3-1-0.8-1C46.8,65,46.5,65.5,46.5,66z"/>
		<path id="XMLID_19_" class="st1" d="M56.3,66.1c0,1.8,0,3.4,0,5.7c0,0.1-0.1,0.2-0.5,0.2c-0.5,0-0.6,0-0.6-0.2c0-2.3,0-3.8,0-5.7
			c0-0.6,0-1.1-0.6-1.1c-0.5,0-0.5,0.4-0.5,1c0,2,0,3.4,0,5.7c0,0.2-0.2,0.2-0.5,0.2c-0.4,0-0.6,0-0.6-0.2c0-2.4,0-3.8,0-5.8
			c0-0.5,0-0.9-0.6-0.9c-0.5,0-0.6,0.4-0.6,1c0,2,0,3.4,0,5.7c0,0.1-0.1,0.2-0.6,0.2c-0.4,0-0.5,0-0.5-0.2c0-2.4,0-5.8,0-7.6
			c0-0.1,0.1-0.1,0.5-0.1c0.5,0,0.5,0,0.5,0.2c0,0.1,0,0.5,0,0.5c0-0.2,0.4-0.7,0.8-0.7c0.9,0,0.9,0.6,1,0.6c0.1,0,0.2-0.6,1.1-0.6
			C56.2,64,56.3,64.9,56.3,66.1z"/>
		<path id="XMLID_16_" class="st1" d="M61.6,64.2c0,0.5,0,4,0,7.6c0,0.2,0,0.2-0.5,0.2c-0.4,0-0.5,0-0.5-0.1c0-0.1,0-0.3-0.1-0.3
			c-0.1,0-0.1,0.4-0.8,0.4c-1.1,0-1.9-0.7-1.9-2.1c0-1.4,0-2.5,0-3.9c0-1.2,0.8-2,1.9-2c0.2,0,0.4,0,0.7,0.2
			c0.1,0.1,0.2,0.1,0.2-0.2c0-0.1,0.1-0.1,0.5-0.1C61.6,64,61.6,64,61.6,64.2z M58.9,66c0,1.3,0,2.6,0,3.8c0,0.7,0.3,1,0.8,1
			c0.5,0,0.8-0.3,0.8-1c0-1.3,0-2.5,0-3.8c0-0.5-0.3-1-0.8-1C59.2,65,58.9,65.5,58.9,66z"/>
		<path id="XMLID_13_" class="st1" d="M63.7,64c0.4,0,0.4,0,0.5,0.1c0.1,0.1,0,0.3,0.1,0.4c0.1,0,0-0.5,0.8-0.5c1.2,0,1.9,1,1.9,2
			c0,1.4,0,2.5,0,3.9c0,1.3-0.7,2-1.9,2c-0.1,0-0.3,0-0.6-0.2c-0.1,0-0.2,0-0.2,0.3c0,0.9,0,1.6,0,3c0,0.1-0.1,0.1-0.6,0.1
			c-0.4,0-0.5,0-0.5-0.1c0-4.2,0-7.3,0-10.9C63.2,64,63.2,64,63.7,64z M64.3,66c0,1.3,0,2.6,0,3.8c0,0.7,0.3,1,0.8,1
			c0.5,0,0.8-0.3,0.8-1c0-1.3,0-2.6,0-3.8c0-0.5-0.3-1-0.8-1C64.6,65,64.3,65.5,64.3,66z"/>
		<path id="XMLID_11_" class="st1" d="M69.4,71.2c0,0.4,0.1,0.7-0.7,0.8c-0.4,0.1-0.7-0.4-0.7-0.8c0-0.4,0.1-0.7,0.7-0.7
			C69.1,70.5,69.3,70.8,69.4,71.2z"/>
		<path id="XMLID_9_" class="st1" d="M73.4,71.8c0-1.8,0-3.6,0-5.7c0-0.5-0.1-1.1-0.6-1.1c-0.6,0-1.1,0.4-1.1,1c0,1.7,0,4.1,0,5.7
			c0,0.1-0.1,0.2-0.6,0.2c-0.4,0-0.5,0-0.5-0.2c0-2.4,0-5.8,0-7.6c0-0.1,0-0.1,0.5-0.1c0.4,0,0.5,0,0.5,0.1c0,0.6,0,0.8,0.1,0.6
			c0.2-0.4,0.6-0.7,1.1-0.7c1.1,0,1.6,0.6,1.6,2.1c0,2,0,3.8,0,5.7c0,0.1-0.1,0.1-0.5,0.1C73.5,71.9,73.4,71.9,73.4,71.8z"/>
		<path id="XMLID_6_" class="st1" d="M77,69.8c0,0.7,0.3,1,0.8,1c0.5,0,0.8-0.3,0.8-1c0-0.1,0.1-0.1,0.6-0.1c0.4,0,0.5,0,0.5,0.1
			c0,1.5-0.8,2.1-1.9,2.1c-1.1,0-1.9-0.7-1.9-2.1c0-1.4,0-2.5,0-3.9c0-1.2,0.8-2,1.9-2c1.1,0,1.9,0.9,1.9,2c0,0.7,0,1.5,0,2
			c0,0.1,0,0.3-0.3,0.3c-1.1,0-1.3,0-2.3,0c-0.1,0-0.2,0.1-0.2,0.3C77,69,77,69.4,77,69.8z M78.7,66c0-0.5-0.3-1-0.8-1
			c-0.5,0-0.8,0.5-0.8,1c0,0.4,0,0.8,0,1.1c0,0.2,0.1,0.2,0.8,0.2c0.7,0,0.9,0,0.9-0.2C78.7,66.7,78.7,66.4,78.7,66z"/>
		<path id="XMLID_4_" class="st1" d="M83.3,70.9c0.1,0,0.1,0.2,0.1,0.5c0,0.4,0,0.5-0.1,0.5c-1.3,0-1.9-0.7-1.9-1.7
			c0-1.5,0-3.1,0-4.8c0-0.3-0.1-0.4-0.5-0.4c-0.2,0-0.2-0.1-0.2-0.4c0-0.3,0-0.4,0.2-0.4c0.5,0,0.5-0.1,0.5-0.4c0-0.3,0-0.6,0-0.8
			c0-0.2,0.1-0.2,0.5-0.2c0.4,0,0.6,0,0.6,0.2c0,0.2,0,0.5,0,0.8c0,0.3,0.1,0.3,0.6,0.3c0.2,0,0.2,0.1,0.2,0.4c0,0.4,0,0.5-0.2,0.5
			c-0.6,0-0.7,0.1-0.7,0.4c0,1.7,0,3.3,0,4.8C82.5,70.6,82.8,70.9,83.3,70.9z"/>
	</g>
</g>
</svg>
